HIERARCHY
ROOT hip
{
  OFFSET 56.7436 78.8065 80.3741
  CHANNELS 6 Xposition Yposition Zposition Zrotation Xrotation Yrotation
  JOINT abdomen
  {
    OFFSET 0 20.6881 -0.73152
    CHANNELS 3 Zrotation Xrotation Yrotation
    JOINT chest
    {
      OFFSET 0 11.7043 -0.48768
      CHANNELS 3 Zrotation Xrotation Yrotation
      JOINT neck
      {
        OFFSET 0 22.1894 -2.19456
        CHANNELS 3 Zrotation Xrotation Yrotation
        JOINT head
        {
          OFFSET -0.24384 7.07133 1.2192
          CHANNELS 3 Zrotation Xrotation Yrotation
          JOINT leftEye
          {
            OFFSET 4.14528 8.04674 8.04672
            CHANNELS 3 Zrotation Xrotation Yrotation
            End Site
            {
              OFFSET 1 0 0
            }
          }
          JOINT rightEye
          {
            OFFSET -3.6576 8.04674 8.04672
            CHANNELS 3 Zrotation Xrotation Yrotation
            End Site
            {
              OFFSET 1 0 0
            }
          }
        }
      }
      JOINT rCollar
      {
        OFFSET -2.68224 19.2634 -4.8768
        CHANNELS 3 Zrotation Xrotation Yrotation
        JOINT rShldr
        {
          OFFSET -8.77824 -1.95073 1.46304
          CHANNELS 3 Zrotation Xrotation Yrotation
          JOINT rForeArm
          {
            OFFSET -28.1742 -1.7115 0.48768
            CHANNELS 3 Zrotation Xrotation Yrotation
            JOINT rHand
            {
              OFFSET -22.5879 0.773209 7.07136
              CHANNELS 3 Zrotation Xrotation Yrotation
              JOINT rThumb1
              {
                OFFSET -1.2192 -0.487915 3.41376
                CHANNELS 3 Zrotation Xrotation Yrotation
                JOINT rThumb2
                {
                  OFFSET -3.37035 -0.52449 3.41376
                  CHANNELS 3 Zrotation Xrotation Yrotation
                  End Site
                  {
                    OFFSET -1.78271 -1.18214 1.43049
                  }
                }
              }
              JOINT rIndex1
              {
                OFFSET -7.75947 0.938293 5.60832
                CHANNELS 3 Zrotation Xrotation Yrotation
                JOINT rIndex2
                {
                  OFFSET -2.54057 -0.884171 1.56538
                  CHANNELS 3 Zrotation Xrotation Yrotation
                  End Site
                  {
                    OFFSET -1.62519 -0.234802 1.16502
                  }
                }
              }
              JOINT rMid1
              {
                OFFSET -8.24714 1.18213 3.41376
                CHANNELS 3 Zrotation Xrotation Yrotation
                JOINT rMid2
                {
                  OFFSET -3.10165 -0.590103 1.0647
                  CHANNELS 3 Zrotation Xrotation Yrotation
                  End Site
                  {
                    OFFSET -2.48547 -0.328903 0.83742
                  }
                }
              }
              JOINT rRing1
              {
                OFFSET -8.82822 0.546677 1.51678
                CHANNELS 3 Zrotation Xrotation Yrotation
                JOINT rRing2
                {
                  OFFSET -2.60934 -0.819778 -0.0198488
                  CHANNELS 3 Zrotation Xrotation Yrotation
                  End Site
                  {
                    OFFSET -2.33842 -0.294052 0.168128
                  }
                }
              }
              JOINT rPinky1
              {
                OFFSET -8.27202 -0.0477905 -0.4584
                CHANNELS 3 Zrotation Xrotation Yrotation
                JOINT rPinky2
                {
                  OFFSET -1.82734 -0.647385 -0.700984
                  CHANNELS 3 Zrotation Xrotation Yrotation
                  End Site
                  {
                    OFFSET -1.69225 -0.51767 -0.607171
                  }
                }
              }
            }
          }
        }
      }
      JOINT lCollar
      {
        OFFSET 2.68224 19.2634 -4.8768
        CHANNELS 3 Zrotation Xrotation Yrotation
        JOINT lShldr
        {
          OFFSET 8.77824 -1.95073 1.46304
          CHANNELS 3 Zrotation Xrotation Yrotation
          JOINT lForeArm
          {
            OFFSET 28.1742 -1.7115 0.48768
            CHANNELS 3 Zrotation Xrotation Yrotation
            JOINT lHand
            {
              OFFSET 22.5879 0.773209 7.07136
              CHANNELS 3 Zrotation Xrotation Yrotation
              JOINT lThumb1
              {
                OFFSET 1.2192 -0.487915 3.41376
                CHANNELS 3 Zrotation Xrotation Yrotation
                JOINT lThumb2
                {
                  OFFSET 3.37035 -0.52449 3.41376
                  CHANNELS 3 Zrotation Xrotation Yrotation
                  End Site
                  {
                    OFFSET 1.78271 -1.18214 1.43049
                  }
                }
              }
              JOINT lIndex1
              {
                OFFSET 7.75947 0.938293 5.60832
                CHANNELS 3 Zrotation Xrotation Yrotation
                JOINT lIndex2
                {
                  OFFSET 2.54057 -0.884171 1.56538
                  CHANNELS 3 Zrotation Xrotation Yrotation
                  End Site
                  {
                    OFFSET 1.62519 -0.234802 1.16502
                  }
                }
              }
              JOINT lMid1
              {
                OFFSET 8.24714 1.18213 3.41376
                CHANNELS 3 Zrotation Xrotation Yrotation
                JOINT lMid2
                {
                  OFFSET 3.10165 -0.590103 1.0647
                  CHANNELS 3 Zrotation Xrotation Yrotation
                  End Site
                  {
                    OFFSET 2.48547 -0.328903 0.83742
                  }
                }
              }
              JOINT lRing1
              {
                OFFSET 8.82822 0.546677 1.51678
                CHANNELS 3 Zrotation Xrotation Yrotation
                JOINT lRing2
                {
                  OFFSET 2.60934 -0.819778 -0.0198488
                  CHANNELS 3 Zrotation Xrotation Yrotation
                  End Site
                  {
                    OFFSET 2.33842 -0.294052 0.168128
                  }
                }
              }
              JOINT lPinky1
              {
                OFFSET 8.27202 -0.0477905 -0.4584
                CHANNELS 3 Zrotation Xrotation Yrotation
                JOINT lPinky2
                {
                  OFFSET 1.82734 -0.647385 -0.700984
                  CHANNELS 3 Zrotation Xrotation Yrotation
                  End Site
                  {
                    OFFSET 1.69225 -0.51767 -0.607171
                  }
                }
              }
            }
          }
        }
      }
    }
  }
  JOINT rButtock
  {
    OFFSET -8.77824 4.35084 1.2192
    CHANNELS 3 Zrotation Xrotation Yrotation
    JOINT rThigh
    {
      OFFSET 0 -1.70687 -2.19456
      CHANNELS 3 Zrotation Xrotation Yrotation
      JOINT rShin
      {
        OFFSET 0 -36.8199 0.73152
        CHANNELS 3 Zrotation Xrotation Yrotation
        JOINT rFoot
        {
          OFFSET 0.73152 -45.1104 -5.12064
          CHANNELS 3 Zrotation Xrotation Yrotation
          End Site
          {
            OFFSET -1.1221 -3.69964 12.103
          }
        }
      }
    }
  }
  JOINT lButtock
  {
    OFFSET 8.77824 4.35084 1.2192
    CHANNELS 3 Zrotation Xrotation Yrotation
    JOINT lThigh
    {
      OFFSET 0 -1.70687 -2.19456
      CHANNELS 3 Zrotation Xrotation Yrotation
      JOINT lShin
      {
        OFFSET 0 -36.8199 0.73152
        CHANNELS 3 Zrotation Xrotation Yrotation
        JOINT lFoot
        {
          OFFSET -0.73152 -45.1104 -5.12064
          CHANNELS 3 Zrotation Xrotation Yrotation
          End Site
          {
            OFFSET 1.1221 -3.69964 12.103
          }
        }
      }
    }
  }
}
MOTION
Frames:	7
Frame Time:	0.00833333
57.5518 80.0246 -78.5403 -4.98627 5.85314 81.5134 17.9813 15.9941 1.07311 -2.30037 1.20299 1.29502 -11.8848 14.2519 -9.26164 -7.57628 12.6182 -12.7308 -0 0 0 -0 0 0 1.87769e-013 -5.09138e-013 7.67806e-014 22.9964 36.2151 0.612852 -20.9302 -14.2286 40.9888 -1.15249 -28.96 -4.46068 2.42636e-009 1.71729e-009 -8.11423e-010 4.20207e-009 2.92286e-009 -1.34676e-009 2.42637e-009 1.7173e-009 -8.11445e-010 7.73091 5.47488 0.417314 2.42636e-009 1.71728e-009 -8.1142e-010 2.90554 0.965183 0.102902 2.42636e-009 1.71728e-009 -8.11424e-010 10.2786 0.731801 0.0259123 2.42635e-009 1.71728e-009 -8.1141e-010 2.22167 -0.733487 -0.20892 1.87549e-013 -5.09138e-013 7.66315e-014 -36.6569 -10.7382 20.4057 18.6563 -11.4101 -35.5097 0.567373 -20.8973 3.07595 1.60135e-009 -9.1132e-009 -1.36073e-009 2.7927e-009 -1.59987e-008 -2.33328e-009 1.60135e-009 -9.11321e-009 -1.36072e-009 -7.73091 5.47488 -0.417314 1.60135e-009 -9.11321e-009 -1.36073e-009 -2.90554 0.965183 -0.102902 1.60135e-009 -9.11321e-009 -1.36073e-009 -10.2786 0.731801 -0.0259123 1.60136e-009 -9.11321e-009 -1.36073e-009 -2.22167 -0.733487 0.20892 -2.03217e-016 0 -3.88251e-019 -25.7746 -17.224 -0.831547 -0.0205341 25.8664 0.565802 -8.22829 -11.0747 -31.0425 2.03217e-016 0 3.88251e-019 10.396 -25.7105 7.31362 0.241463 33.8642 -0.566853 0.0345694 -7.17252 -0.964676 
57.4933 80.1654 -78.0896 -5.29741 6.80777 80.6016 16.7725 16.1714 1.59817 -1.76865 1.45664 1.38423 -11.5512 14.1795 -9.27272 -8.58895 12.2384 -12.7027 -0 0 0 -0 0 0 2.16559e-013 -7.20283e-014 -5.35593e-014 22.2183 37.0292 1.08663 -20.9522 -14.2578 41.0472 -1.25557 -30.1464 -4.67856 2.36375e-009 1.13305e-009 -1.8255e-010 4.06995e-009 1.90833e-009 -2.61153e-010 2.36377e-009 1.13305e-009 -1.82569e-010 7.73091 5.47488 0.417314 2.36375e-009 1.13303e-009 -1.82542e-010 2.90554 0.965183 0.102902 2.36376e-009 1.13303e-009 -1.82551e-010 10.2786 0.731801 0.0259123 2.36375e-009 1.13303e-009 -1.82539e-010 2.22167 -0.733487 -0.20892 2.16347e-013 -7.20284e-014 -5.36878e-014 -37.7084 -12.1625 21.0098 19.0296 -11.8451 -36.3517 0.613007 -21.6778 3.20234 1.9367e-009 -7.93153e-009 -2.68707e-009 3.40287e-009 -1.42366e-008 -4.62318e-009 1.9367e-009 -7.93153e-009 -2.68706e-009 -7.73091 5.47488 -0.417314 1.9367e-009 -7.93154e-009 -2.68707e-009 -2.90554 0.965183 -0.102902 1.9367e-009 -7.93154e-009 -2.68707e-009 -10.2786 0.731801 -0.0259123 1.93671e-009 -7.93154e-009 -2.68708e-009 -2.22167 -0.733487 0.20892 -2.03217e-016 0 -3.88251e-019 -27.3138 -18.7098 -3.29323 -0.0353261 26.7937 0.568098 -6.67322 -9.45055 -28.7455 2.03217e-016 0 3.88251e-019 9.50763 -25.7539 6.98399 0.234951 33.3235 -0.549516 0.295097 -7.19498 0.24454 
57.4365 80.2765 -77.8641 -5.65021 8.69474 79.4485 14.2289 16.1498 2.48412 -0.735602 1.81965 1.49924 -10.8234 13.9955 -9.27209 -10.2676 12.021 -12.5525 -0 0 0 -0 0 0 2.65462e-013 5.92427e-013 -2.45642e-013 21.0929 37.9072 1.76199 -20.9521 -14.257 41.0499 -1.40704 -31.7135 -4.97736 1.9918e-009 5.50019e-011 8.4955e-010 3.39026e-009 4.28133e-011 1.51427e-009 1.99182e-009 5.50009e-011 8.49539e-010 7.73091 5.47488 0.417314 1.99179e-009 5.49859e-011 8.49565e-010 2.90554 0.965183 0.102902 1.9918e-009 5.49889e-011 8.49549e-010 10.2786 0.731801 0.0259123 1.99179e-009 5.49902e-011 8.49559e-010 2.22167 -0.733487 -0.20892 2.65282e-013 5.92427e-013 -2.45751e-013 -39.2088 -13.7709 21.6144 19.4453 -12.3408 -37.315 0.661488 -22.4719 3.33234 2.41331e-009 -6.61013e-009 -4.51989e-009 4.26939e-009 -1.23438e-008 -7.78729e-009 2.41331e-009 -6.61013e-009 -4.51989e-009 -7.73091 5.47488 -0.417314 2.41331e-009 -6.61013e-009 -4.51989e-009 -2.90554 0.965183 -0.102902 2.4133e-009 -6.61014e-009 -4.51989e-009 -10.2786 0.731801 -0.0259123 2.41332e-009 -6.61014e-009 -4.5199e-009 -2.22167 -0.733487 0.20892 -2.03217e-016 0 -3.88251e-019 -29.8698 -20.7187 -5.61364 -0.0534032 28.0479 0.581567 -5.38919 -8.09211 -26.3462 2.03217e-016 0 3.88251e-019 7.78118 -25.7555 6.90394 0.226819 32.56 -0.524946 0.557585 -7.22277 1.46709 
57.3574 80.3486 -77.6755 -5.92753 10.9455 78.4479 11.3111 16.1765 3.35772 0.466051 2.08565 1.5938 -10.0567 13.8117 -9.2275 -11.965 11.8371 -12.3195 -0 0 0 -0 0 0 3.10486e-013 1.24201e-012 -4.31777e-013 19.7792 38.9475 2.6105 -20.9661 -14.276 41.0855 -1.58094 -33.3152 -5.29684 1.58351e-009 -1.00076e-009 1.82871e-009 2.65007e-009 -1.78261e-009 3.19786e-009 1.58352e-009 -1.00076e-009 1.82871e-009 7.73091 5.47488 0.417314 1.5835e-009 -1.00078e-009 1.82873e-009 2.90554 0.965183 0.102902 1.58351e-009 -1.00077e-009 1.82871e-009 10.2786 0.731801 0.0259123 1.5835e-009 -1.00077e-009 1.82872e-009 2.22167 -0.733487 -0.20892 3.10345e-013 1.24201e-012 -4.31873e-013 -40.787 -15.3018 22.3832 19.827 -12.8035 -38.2365 0.709926 -23.2237 3.45701 2.77934e-009 -4.81026e-009 -6.17499e-009 4.94117e-009 -9.59284e-009 -1.06457e-008 2.77934e-009 -4.81026e-009 -6.17499e-009 -7.73091 5.47488 -0.417314 2.77934e-009 -4.81026e-009 -6.17499e-009 -2.90554 0.965183 -0.102902 2.77933e-009 -4.81027e-009 -6.17499e-009 -10.2786 0.731801 -0.0259123 2.77934e-009 -4.81027e-009 -6.175e-009 -2.22167 -0.733487 0.20892 -2.03217e-016 0 -3.88251e-019 -32.6054 -22.758 -7.53124 -0.0721766 29.3454 0.600071 -4.43792 -7.03911 -24.1999 2.03217e-016 0 3.88251e-019 5.90069 -25.7237 6.97062 0.219638 31.7981 -0.500469 0.80132 -7.29086 2.59274 
57.2849 80.4173 -77.4882 -6.05298 12.7516 77.6854 8.96746 16.5036 3.84925 1.50558 2.04836 1.62149 -9.60638 13.7402 -9.10652 -13.0333 11.5579 -12.044 -0 0 0 -0 0 0 3.27638e-013 1.63451e-012 -5.44272e-013 18.4281 40.2479 3.60983 -21.0299 -14.3648 41.2426 -1.7349 -34.6064 -5.56506 1.41189e-009 -1.51816e-009 2.29877e-009 2.33644e-009 -2.67688e-009 4.00801e-009 1.4119e-009 -1.51817e-009 2.29877e-009 7.73091 5.47488 0.417314 1.41187e-009 -1.51818e-009 2.2988e-009 2.90554 0.965183 0.102902 1.41189e-009 -1.51817e-009 2.29877e-009 10.2786 0.731801 0.0259123 1.41188e-009 -1.51816e-009 2.29878e-009 2.22167 -0.733487 -0.20892 3.27528e-013 1.63451e-012 -5.44372e-013 -42.069 -16.4886 23.4699 20.1103 -13.1511 -38.9483 0.754399 -23.8774 3.56684 2.78295e-009 -2.19318e-009 -6.96816e-009 4.96713e-009 -5.25645e-009 -1.20184e-008 2.78295e-009 -2.19319e-009 -6.96817e-009 -7.73091 5.47488 -0.417314 2.78295e-009 -2.19318e-009 -6.96816e-009 -2.90554 0.965183 -0.102902 2.78294e-009 -2.19319e-009 -6.96816e-009 -10.2786 0.731801 -0.0259123 2.78295e-009 -2.1932e-009 -6.96817e-009 -2.22167 -0.733487 0.20892 -2.03217e-016 0 -3.88251e-019 -34.5643 -24.359 -8.73506 -0.0881419 30.4026 0.616814 -3.85129 -6.34951 -22.6628 2.03217e-016 0 3.88251e-019 4.54983 -25.6665 7.08098 0.215143 31.2618 -0.482859 1.00752 -7.43518 3.51154 
57.1122 80.5107 -77.3204 -5.9488 13.852 76.9225 7.2501 17.3271 3.72035 2.47476 1.46721 1.52507 -9.68859 13.8386 -8.81552 -13.3117 11.1465 -11.5833 -0 0 0 -0 0 0 2.94356e-013 1.69435e-012 -5.64108e-013 16.7501 42.0458 5.07198 -21.161 -14.5476 41.5723 -1.85056 -35.5392 -5.76317 1.689e-009 -1.19398e-009 2.01236e-009 2.82359e-009 -2.11692e-009 3.52309e-009 1.689e-009 -1.19399e-009 2.01235e-009 7.73091 5.47488 0.417314 1.68898e-009 -1.194e-009 2.01238e-009 2.90554 0.965183 0.102902 1.689e-009 -1.19399e-009 2.01236e-009 10.2786 0.731801 0.0259123 1.68899e-009 -1.19399e-009 2.01236e-009 2.22167 -0.733487 -0.20892 2.94272e-013 1.69435e-012 -5.64235e-013 -43.0531 -17.3012 25.236 20.3109 -13.4019 -39.4591 0.799815 -24.5226 3.67629 2.18594e-009 2.83762e-009 -6.5425e-009 3.92796e-009 3.48098e-009 -1.12919e-008 2.18594e-009 2.83762e-009 -6.5425e-009 -7.73091 5.47488 -0.417314 2.18594e-009 2.83762e-009 -6.5425e-009 -2.90554 0.965183 -0.102902 2.18593e-009 2.83761e-009 -6.5425e-009 -10.2786 0.731801 -0.0259123 2.18594e-009 2.83761e-009 -6.5425e-009 -2.22167 -0.733487 0.20892 -2.03217e-016 0 -3.88251e-019 -35.4038 -25.4444 -8.89071 -0.100301 31.1768 0.630903 -3.65932 -6.17547 -21.9191 2.03217e-016 0 3.88251e-019 3.84006 -25.4848 7.25606 0.212398 30.9218 -0.471368 1.15408 -7.68129 4.11185 
57.3275 80.8604 -76.7991 -5.68677 14.601 76.0854 5.73903 18.4716 3.21026 3.48576 0.513954 1.34466 -10.0758 14.0378 -8.39956 -13.1348 10.6703 -10.9689 -0 0 0 -0 0 0 2.28826e-013 1.55439e-012 -5.27708e-013 14.6511 44.1936 6.99183 -21.3344 -14.7906 42.0195 -1.94406 -36.2836 -5.92318 2.22281e-009 -3.58673e-010 1.25466e-009 3.77031e-009 -6.73133e-010 2.23104e-009 2.22282e-009 -3.58671e-010 1.25464e-009 7.73091 5.47488 0.417314 2.2228e-009 -3.58682e-010 1.25467e-009 2.90554 0.965183 0.102902 2.22281e-009 -3.58678e-010 1.25466e-009 10.2786 0.731801 0.0259123 2.2228e-009 -3.58676e-010 1.25467e-009 2.22167 -0.733487 -0.20892 2.28766e-013 1.55439e-012 -5.27882e-013 -43.8938 -17.8397 27.4856 20.4612 -13.595 -39.8377 0.845642 -25.1541 3.78449 1.17964e-009 9.59943e-009 -5.32105e-009 2.16391e-009 1.53577e-008 -9.19515e-009 1.17963e-009 9.59943e-009 -5.32105e-009 -7.73091 5.47488 -0.417314 1.17964e-009 9.59943e-009 -5.32105e-009 -2.90554 0.965183 -0.102902 1.17963e-009 9.59942e-009 -5.32105e-009 -10.2786 0.731801 -0.0259123 1.17965e-009 9.59942e-009 -5.32106e-009 -2.22167 -0.733487 0.20892 -2.03217e-016 0 -3.88251e-019 -35.5415 -26.2752 -8.1989 -0.110385 31.8083 0.645471 -3.76514 -6.48258 -21.7312 2.03217e-016 0 3.88251e-019 3.42798 -25.2078 7.53371 0.210575 30.6883 -0.462992 1.25791 -8.00646 4.48004 
